<svg xmlns="http://www.w3.org/2000/svg" viewBox="0 0 24 24" fill="none">
  <path d="M15.8 12.3C15.8 10.6 17.1 9.8 17.1 9.8C16.4 8.8 15.2 8.7 14.8 8.7C13.8 8.6 12.9 9.3 12.4 9.3C11.8 9.3 11 8.7 10.1 8.7C8.2 8.7 6.2 10.2 6.2 13.1C6.2 14.9 6.9 16.8 7.7 18C8.4 19 9.1 20 10.1 19.9C11 19.9 11.4 19.3 12.5 19.3C13.5 19.3 13.9 19.9 14.9 19.9C15.9 19.9 16.5 19 17.2 18C18 16.9 18.3 15.8 18.3 15.8C18.3 15.8 15.8 14.8 15.8 12.3Z" fill="currentColor"/>
  <path d="M14.1 7.1C14.6 6.5 14.9 5.7 14.8 5C14 5 13.1 5.5 12.6 6.1C12.2 6.6 11.8 7.5 11.9 8.2C12.7 8.2 13.6 7.7 14.1 7.1Z" fill="currentColor"/>
</svg>
