<svg xmlns="http://www.w3.org/2000/svg" viewBox="0 0 24 24" fill="none">
  <circle cx="12" cy="12" r="10" fill="#ffffff"/>
  <path d="M18.8 12.3C18.8 16.2 16.2 18.9 12.2 18.9C8.2 18.9 5 15.7 5 11.8C5 7.9 8.2 4.7 12.2 4.7C14.1 4.7 15.6 5.4 16.7 6.4L14.7 8.3C14.1 7.7 13.2 7.3 12.2 7.3C9.6 7.3 7.5 9.4 7.5 12C7.5 14.6 9.6 16.7 12.2 16.7C14.6 16.7 15.7 15.3 16 14.5H12.2V12.3H18.8Z" fill="#4285F4"/>
  <path d="M7.5 9.2L9.6 10.7C10.1 9.1 11.3 8.1 12.8 8.1C13.7 8.1 14.5 8.4 15.1 9L17.1 7.1C16 6.1 14.6 5.4 12.8 5.4C9.7 5.4 7 7.2 5.8 9.9L7.5 9.2Z" fill="#EA4335"/>
  <path d="M5.8 9.9C5.3 10.8 5 11.9 5 13C5 14.1 5.3 15.2 5.8 16.1L8 14.5C7.7 13.9 7.5 13.2 7.5 12.5C7.5 11.7 7.7 11 8 10.4L5.8 9.9Z" fill="#FBBC05"/>
  <path d="M5.8 16.1C7 18.8 9.7 20.6 12.8 20.6C14.5 20.6 16 20 17 19L14.8 17.2C14.2 17.6 13.5 17.9 12.8 17.9C11.3 17.9 10 17 9.4 15.6L5.8 16.1Z" fill="#34A853"/>
</svg>
